<svg preserveAspectRatio="none" overflow="visible" style="display: block;" width="41.0936" height="39.7815" viewBox="0 0 41.0936 39.7815" fill="none" xmlns="http://www.w3.org/2000/svg">
<path id="Vector" d="M31.4481 11.4688C31.4481 12.064 31.4481 12.6671 31.4481 13.2623C31.4416 13.3236 31.4589 13.3851 31.4972 13.4359C31.5354 13.4867 31.592 13.5236 31.6572 13.5401C31.9446 13.6671 32.2058 13.8337 32.4758 13.9765L33.6516 14.5955C34.0174 14.786 34.3744 15.0003 34.7489 15.1669C35.1234 15.3336 35.6721 15.6827 36.1598 15.9049C36.9217 16.2603 37.5518 16.8123 37.9713 17.4921C38.1494 17.8209 38.2952 18.1635 38.4068 18.5158C38.7203 19.3094 38.9206 20.103 39.208 20.8966C39.4954 21.6901 39.7916 22.6424 40.079 23.5154C40.3054 24.2058 40.5667 24.8803 40.7583 25.5787C40.9068 26.0374 40.9831 26.513 40.9847 26.9912C40.9847 28.1737 40.9847 29.372 40.9847 30.5385C40.9765 30.8313 40.9055 31.1197 40.7757 31.3877C40.7124 31.4946 40.623 31.587 40.5144 31.6575C40.3134 31.8046 40.0942 31.9297 39.8612 32.0305C39.5912 32.1574 39.3387 32.3241 39.0687 32.4669C38.5113 32.7605 37.9452 33.0304 37.3965 33.3399C36.8478 33.6494 36.2208 33.9588 35.6547 34.2683L34.0783 35.0619C33.5384 35.3476 32.9984 35.6492 32.4497 35.9269C31.631 36.3396 30.8385 36.8078 30.0024 37.1966C29.6889 37.3395 29.4102 37.53 29.1315 37.6807C28.8528 37.8315 28.3912 38.0934 28.008 38.2759C27.6248 38.4584 27.529 38.5219 27.2851 38.6489C27.0306 38.7778 26.7397 38.8346 26.4496 38.812C26.1594 38.7893 25.8833 38.6884 25.6565 38.5219C25.3517 38.3553 25.0295 38.2045 24.7159 38.0378C24.6463 37.9982 24.6114 38.0378 24.5853 38.0934L24.3676 38.6965C24.2943 38.8381 24.1906 38.9649 24.0627 39.0695C23.7773 39.3464 23.4078 39.5395 23.0015 39.6243C22.5951 39.7091 22.1702 39.6817 21.7809 39.5456C20.8556 39.2449 20.0594 38.6834 19.5078 37.9426C19.1485 37.5107 18.869 37.0282 18.6805 36.5142C18.4824 36.021 18.3821 35.4998 18.3843 34.9746C18.3898 34.9186 18.377 34.8624 18.3476 34.813C18.3182 34.7636 18.2734 34.7232 18.2189 34.6969C17.6876 34.3794 17.1302 34.1176 16.5815 33.8239C16.0329 33.5303 15.5713 33.2764 15.04 33.0304C14.5088 32.7844 13.8904 32.3955 13.2982 32.1098C12.7059 31.8241 12.375 31.6099 11.9047 31.3877C11.2341 31.0623 10.5983 30.6814 9.94513 30.3401L8.99583 29.8322C8.59521 29.6259 8.17717 29.4275 7.79396 29.1894C7.68945 29.126 7.67203 29.1894 7.65461 29.2609C7.58787 29.5138 7.47607 29.7551 7.32366 29.9751C7.08979 30.336 6.72621 30.6121 6.2945 30.7568C5.86279 30.9014 5.38949 30.9056 4.95476 30.7687C4.41907 30.5957 3.9273 30.3257 3.50904 29.9751C3.03357 29.6017 2.63281 29.156 2.32458 28.6577C1.94576 28.0997 1.68025 27.4842 1.54076 26.8405C1.51454 26.595 1.51454 26.3479 1.54076 26.1024C1.54921 26.0339 1.53351 25.9646 1.49594 25.9047C1.45837 25.8448 1.40086 25.7973 1.33174 25.7691L0.617581 25.4041C0.453574 25.3357 0.316895 25.2227 0.226414 25.0805C0.135933 24.9384 0.0961113 24.7741 0.112448 24.6105C0.112448 19.7062 0.112448 14.8019 0.112448 9.89756C0.112448 9.18334 0.112448 8.46118 0.112448 7.74696C0.102993 7.61539 0.132817 7.48394 0.198754 7.36657C0.26469 7.24921 0.364278 7.1503 0.486943 7.08035C0.939821 6.82641 1.41883 6.59627 1.88042 6.34233L3.30001 5.56462C3.90966 5.24719 4.52801 4.94563 5.13766 4.60439C5.7473 4.26315 6.16534 4.04889 6.68789 3.81081C7.21044 3.57274 7.74171 3.25531 8.27297 2.96962C8.80423 2.68393 9.32678 2.43792 9.84062 2.17604C10.1716 1.99352 10.5199 1.82687 10.8596 1.64434L12.9846 0.493655C13.2076 0.374274 13.4372 0.265668 13.6727 0.168288C13.7578 0.129217 13.8517 0.108865 13.947 0.108865C14.0423 0.108865 14.1363 0.129217 14.2213 0.168288C14.5227 0.282484 14.8139 0.417798 15.0923 0.573013C15.3013 0.699986 15.5364 0.795215 15.7455 0.914252C16.3551 1.27136 16.9996 1.58086 17.6266 1.91416C18.0795 2.16017 18.4976 2.40618 19.0027 2.63632C19.6559 2.95375 20.283 3.31879 20.9274 3.66003C21.18 3.79494 21.4413 3.90604 21.6851 4.04889C22.1728 4.3187 22.6693 4.58058 23.1657 4.84246L24.7595 5.63604C25.282 5.91379 25.8133 6.16774 26.3271 6.42962C26.6232 6.60421 26.9455 6.74705 27.259 6.9137C27.5726 7.08035 28.069 7.35811 28.487 7.5565C28.9051 7.7549 29.4537 8.09613 29.9676 8.35008C30.2028 8.46364 30.4297 8.59087 30.6469 8.731C30.7832 8.81178 30.9259 8.88339 31.0736 8.94526C31.2087 9.00534 31.3207 9.10104 31.3953 9.21992C31.4698 9.3388 31.5034 9.47537 31.4917 9.61187C31.4917 10.215 31.4917 10.8181 31.4917 11.4292L31.4481 11.4688ZM16.8254 32.332V18.7777C16.8254 18.2143 16.8254 17.6429 16.8254 17.0794C16.8241 17.0196 16.8046 16.9613 16.7693 16.9109C16.734 16.8605 16.6841 16.82 16.6251 16.7938C16.1809 16.5319 15.7542 16.2938 15.249 16.0637C14.7439 15.8335 14.1778 15.4923 13.6291 15.2225C13.0804 14.9527 12.6363 14.7066 12.1486 14.4289C11.6608 14.1511 10.9902 13.8258 10.4067 13.5242C9.8232 13.2227 9.46613 13.0163 8.98712 12.7306C8.795 12.6101 8.59424 12.5014 8.38619 12.4053C7.92978 12.2001 7.48768 11.9695 7.06239 11.7149L5.22475 10.7705C4.7022 10.4927 4.17964 10.1991 3.63967 9.97691C3.25647 9.78646 2.88197 9.58013 2.50748 9.3738C2.29846 9.26269 2.09815 9.13572 1.88042 9.03256C1.66269 8.92939 1.64527 8.94526 1.64527 9.15159V24.1026C1.64093 24.1528 1.64093 24.2032 1.64527 24.2534C1.64527 24.42 1.83687 24.4359 1.9588 24.4915C2.08073 24.547 2.13298 24.4915 2.20266 24.4121C2.41661 24.1906 2.69887 24.0329 3.01261 23.9598C3.64113 23.828 4.30112 23.9188 4.85896 24.2137C5.54812 24.5635 6.14313 25.0487 6.6008 25.6342C6.99132 26.1328 7.28583 26.6883 7.47172 27.2769C7.50821 27.3679 7.57928 27.4439 7.67203 27.4912C8.00298 27.6816 8.34264 27.8642 8.6823 28.0308C9.02196 28.1975 9.48355 28.4673 9.89288 28.6736C10.3022 28.8799 10.5461 29.0149 10.8683 29.1815C11.4257 29.4831 11.9831 29.7846 12.5492 30.0703C13.1153 30.356 13.5943 30.6496 14.143 30.8639C14.5262 31.0385 14.8745 31.2686 15.249 31.4591C15.7629 31.7527 16.268 32.0305 16.8254 32.332ZM29.8892 12.1513V10.9768C29.8892 10.9292 29.8892 10.8102 29.7934 10.8816C29.445 11.0959 29.0531 11.2308 28.7047 11.445C28.6033 11.5152 28.4814 11.5564 28.3543 11.5635C28.2272 11.5705 28.1006 11.5431 27.9906 11.4847C27.8677 11.4384 27.7603 11.3634 27.6793 11.2673C27.5983 11.1712 27.5464 11.0573 27.529 10.9371C27.5103 10.7964 27.5384 10.6537 27.6099 10.5278C27.6813 10.4018 27.7928 10.2983 27.9296 10.2309C28.2693 10.0483 28.6351 9.88962 28.9573 9.67536C28.9573 9.67536 29.0618 9.67535 29.0531 9.58806C29.0434 9.56928 29.0288 9.55295 29.0106 9.5405C28.9924 9.52805 28.9711 9.51986 28.9486 9.51664C28.8497 9.49658 28.7573 9.45583 28.6786 9.3976L27.3287 8.68338C27.05 8.5326 26.7539 8.40563 26.4578 8.24691C25.9004 7.91361 25.2994 7.63586 24.7159 7.32636L23.2005 6.49311L21.6329 5.69953L20.0304 4.81072C19.5165 4.54884 19.0201 4.27109 18.5063 4.01714C17.9924 3.7632 17.4002 3.40609 16.8167 3.14421C16.4248 2.96168 16.059 2.73155 15.6758 2.52522C15.1619 2.24746 14.622 2.00939 14.1343 1.73164C14.0911 1.6965 14.0353 1.67708 13.9775 1.67708C13.9197 1.67708 13.8638 1.6965 13.8207 1.73164C13.4549 1.96971 13.0282 2.12049 12.645 2.35063C12.2618 2.58077 12.105 2.61251 11.8437 2.76329C11.3125 3.08072 10.7551 3.35054 10.2064 3.63622L8.63875 4.4298L7.10593 5.22338C6.09567 5.73127 5.22475 6.23123 4.25803 6.71531C3.70935 6.99306 3.15196 7.27081 2.6207 7.58031C2.56844 7.61999 2.45522 7.63586 2.46393 7.70728C2.47264 7.7787 2.57715 7.7549 2.63812 7.78664L2.75133 7.84219C3.09099 8.02471 3.42194 8.21517 3.7616 8.38976C4.49317 8.73893 5.22475 9.16746 5.94761 9.53251C6.35694 9.73091 6.76628 9.96104 7.1669 10.1832L8.66488 10.9768C9.22227 11.2784 9.78837 11.572 10.3545 11.8577C10.9206 12.1434 11.3386 12.3735 11.8263 12.6513L13.6901 13.6353C14.3955 14.0083 15.1097 14.3733 15.8151 14.7543C16.3551 15.0399 16.9125 15.3018 17.4263 15.6193C17.4778 15.658 17.5425 15.6791 17.6092 15.6791C17.676 15.6791 17.7406 15.658 17.7921 15.6193C17.9211 15.5174 18.0647 15.432 18.2189 15.3653C18.7514 15.1272 19.2689 14.8623 19.7691 14.5717C20.3265 14.286 20.8926 14.0083 21.4326 13.6909C21.7461 13.5004 22.0945 13.3734 22.3993 13.175C22.4903 13.1152 22.5943 13.0737 22.7043 13.0532C22.8143 13.0327 22.9278 13.0338 23.0373 13.0563C23.1468 13.0788 23.2498 13.1222 23.3395 13.1837C23.4292 13.2453 23.5036 13.3234 23.5576 13.4131C23.6303 13.54 23.6584 13.6842 23.6381 13.8261C23.6179 13.9681 23.5502 14.1009 23.4444 14.2067C23.0892 14.4622 22.7036 14.6805 22.2948 14.8574C21.9638 15.0399 21.6155 15.2145 21.2845 15.3891C20.7794 15.6589 20.2742 15.9049 19.7865 16.1827C19.2988 16.4604 18.9156 16.5874 18.5498 16.8255C18.4714 16.8731 18.3931 16.9207 18.3931 17.0239V19.4046C18.3931 19.4919 18.3931 19.5078 18.515 19.4602C19.0375 19.238 19.5078 18.9205 20.0217 18.6666C20.5355 18.4127 20.9361 18.1825 21.3977 17.9444C21.7113 17.7778 22.0422 17.6349 22.347 17.4524C22.8522 17.1509 23.3921 16.8969 23.9147 16.6192L25.4649 15.8256C26.0659 15.5161 26.6581 15.2066 27.2503 14.8733C27.8425 14.54 28.3303 14.3099 28.8702 14.0321C29.166 13.8458 29.481 13.6863 29.8108 13.556C29.924 13.556 29.9327 13.4369 29.9327 13.3417C29.924 12.9132 29.924 12.5322 29.924 12.1513H29.8892ZM36.5779 18.1666C36.4124 18.0159 36.3514 17.7857 36.1685 17.6429C35.9623 17.4626 35.731 17.3079 35.4805 17.1826C34.9318 16.9445 34.418 16.635 33.8867 16.389C33.3555 16.143 32.8242 15.8494 32.3016 15.5478C31.7791 15.2463 31.3262 15.0558 30.8559 14.7543C30.8026 14.7231 30.7407 14.7066 30.6774 14.7066C30.6141 14.7066 30.5521 14.7231 30.4988 14.7543C30.2985 14.8574 30.1069 14.9765 29.9066 15.0717C29.3144 15.3574 28.7396 15.6827 28.1648 15.9843L26.6145 16.7779L24.9685 17.627C24.2282 18.0159 23.4879 18.4206 22.7564 18.8015C22.0248 19.1824 21.5109 19.4364 20.91 19.7855C20.3091 20.1347 19.8562 20.3252 19.3249 20.5791C19.1595 20.6664 19.1595 20.722 19.3249 20.8013C19.4904 20.8807 19.6907 20.968 19.8562 21.0632C20.3352 21.341 20.849 21.5711 21.3281 21.8568C21.5109 21.9599 21.6851 22.079 21.8767 22.1663C22.4515 22.4202 22.9915 22.7297 23.5315 23.0313C23.8062 23.1631 24.0491 23.3439 24.2456 23.563C24.4658 23.7903 24.664 24.0346 24.8379 24.2931C24.8379 24.3566 24.8988 24.3724 24.9685 24.3327C25.2994 24.1582 25.6304 23.9994 25.9526 23.8169C26.5187 23.4916 27.111 23.2138 27.6945 22.9043C28.278 22.5948 28.6873 22.3409 29.2186 22.1107C29.6018 21.9361 29.9589 21.7219 30.3247 21.5155C30.9256 21.1902 31.5352 20.8727 32.1449 20.5632C32.7545 20.2538 33.1377 20.0236 33.6429 19.7697C34.148 19.5157 34.7054 19.2459 35.2192 18.9761C35.7331 18.7063 36.0901 18.5476 36.4821 18.2857C36.5779 18.2619 36.5779 18.2619 36.5779 18.1666ZM38.9293 25.0787C38.8335 24.8803 38.8248 24.6581 38.7465 24.4438C38.5374 23.8407 38.311 23.2376 38.1455 22.6266C37.98 22.0155 37.6752 21.341 37.4923 20.6823C37.4052 20.341 37.2572 20.0157 37.1353 19.6824C37.1353 19.5951 37.0569 19.5871 36.9872 19.6348C36.8879 19.7004 36.7831 19.7588 36.6737 19.8093C36.1685 20.0077 35.7331 20.3252 35.2279 20.5474C34.8228 20.735 34.4302 20.9443 34.0522 21.1743C33.5296 21.4759 32.981 21.7457 32.441 22.0314C31.901 22.3171 31.422 22.6027 30.882 22.8249C30.4901 22.9995 30.1331 23.2297 29.7586 23.4281C28.8876 23.8566 28.1038 24.301 27.2764 24.7454L25.5346 25.6501C25.4911 25.6501 25.4214 25.6977 25.4562 25.7691C25.5607 25.9755 25.5433 26.2135 25.6391 26.4357C25.9613 27.2293 26.1704 28.0229 26.4578 28.8165C26.632 29.2926 26.78 29.7846 26.9368 30.2687C27.0326 30.5623 27.1545 30.856 27.2416 31.1575C27.2416 31.2766 27.32 31.2845 27.4158 31.221C27.8861 30.9115 28.4173 30.7052 28.9051 30.4274C29.5408 30.0624 30.2114 29.737 30.8646 29.3878C31.152 29.2371 31.4569 29.1022 31.7355 28.9434C32.2929 28.6181 32.8765 28.3403 33.4774 28.0388L34.9841 27.2452C35.4979 26.9754 36.0292 26.7135 36.5343 26.4516C37.2746 26.031 38.0497 25.658 38.8161 25.2612C38.8555 25.2453 38.8892 25.2199 38.9138 25.1877C38.9384 25.1555 38.9528 25.1178 38.9555 25.0787H38.9293ZM18.3669 27.5388V32.9589C18.3669 33.07 18.3669 33.1573 18.515 33.205C18.5857 33.2419 18.6527 33.2843 18.7153 33.3319C18.8372 33.4192 18.933 33.4033 19.0462 33.3319C19.3982 33.0111 19.8724 32.8263 20.37 32.8161C20.9367 32.8161 21.4897 32.9739 21.9551 33.2684C22.4052 33.5301 22.8053 33.8572 23.1396 34.2366C23.6974 34.7935 24.1216 35.4503 24.385 36.165C24.3986 36.2131 24.4236 36.2579 24.4582 36.2963C24.4928 36.3346 24.5362 36.3657 24.5853 36.3872C25.134 36.6411 25.6478 36.9586 26.1965 37.1808C26.3707 37.2681 26.3794 37.2284 26.3794 37.0776V33.6494C26.3837 33.5753 26.3837 33.5012 26.3794 33.4272C26.2982 33.0096 26.1818 32.5983 26.031 32.1971C25.8655 31.7368 25.7349 31.2686 25.5694 30.8083C25.2995 30.0148 25.0382 29.2212 24.7769 28.4276C24.6985 28.1895 24.6288 27.9435 24.5243 27.7055C24.4198 27.4674 24.3676 27.1499 24.2718 26.9119C24.176 26.6738 24.0802 26.3167 23.9582 26.0231C23.856 25.6568 23.7008 25.3045 23.4966 24.9755C23.2578 24.6487 22.9387 24.3771 22.5648 24.182C22.4254 24.1105 22.2861 24.0312 22.138 23.9677C21.7374 23.7852 21.3803 23.5392 20.9797 23.3487C20.5791 23.1582 20.0478 22.8726 19.5949 22.6186C19.2466 22.4602 18.9092 22.2827 18.5847 22.0869C18.4976 22.0234 18.4366 22.0393 18.4366 22.1504V27.6102L18.3669 27.5388ZM39.4519 26.6024C38.8265 26.8747 38.2188 27.1794 37.6317 27.515C37.1265 27.761 36.6301 28.0308 36.1424 28.3086L34.1828 29.372C33.9825 29.4672 33.817 29.61 33.6167 29.6894C33.1511 29.8931 32.7002 30.1237 32.2668 30.3798L30.525 31.3083C30.0381 31.6053 29.5288 31.8705 29.0009 32.1019C28.9235 32.1291 28.8526 32.1695 28.7918 32.2209C28.518 32.3944 28.2263 32.5432 27.9209 32.6653C27.895 32.6713 27.8708 32.6824 27.8501 32.6978C27.8294 32.7132 27.8126 32.7325 27.801 32.7544C27.7894 32.7764 27.7832 32.8004 27.7828 32.8247C27.7825 32.8491 27.788 32.8732 27.799 32.8955C27.8802 33.2262 27.9182 33.5645 27.9122 33.9033C27.9122 34.7762 27.9122 35.6492 27.9122 36.5221C27.9122 36.7284 27.9122 36.7364 28.1212 36.6332L29.7411 35.7206C29.985 35.5857 30.255 35.4825 30.4814 35.3476C30.9691 35.0461 31.5004 34.8238 31.9881 34.554C32.4758 34.2842 33.129 33.9906 33.6777 33.6732C34.2264 33.3557 34.688 33.1494 35.1757 32.8796C35.8202 32.5145 36.4995 32.1892 37.1614 31.84L38.0933 31.3559C38.4445 31.1524 38.808 30.9669 39.1819 30.8004C39.2772 30.7642 39.3564 30.7 39.4069 30.6181C39.4574 30.5361 39.4763 30.441 39.4606 30.3481C39.4606 29.1736 39.4606 27.9673 39.4606 26.8246L39.4519 26.6024ZM23.0438 37.4347C23.0552 37.2211 23.0317 37.0072 22.9741 36.7999C22.8326 36.3287 22.6091 35.8813 22.3122 35.4746C22.0188 35.05 21.6263 34.6897 21.1626 34.4191C20.9339 34.2853 20.668 34.2137 20.3962 34.2128C20.3193 34.2138 20.2445 34.2355 20.181 34.275C20.1175 34.3145 20.0681 34.3701 20.0391 34.435C19.872 34.7948 19.8504 35.1969 19.9781 35.5698C20.1599 36.2358 20.5021 36.8565 20.9797 37.3871C21.304 37.7381 21.7043 38.0244 22.1554 38.2283C22.6344 38.4505 23.0263 38.2283 23.0263 37.7283C23.0525 37.6252 23.0438 37.53 23.0438 37.4347ZM6.15663 28.5784C6.16253 28.1862 6.07952 27.7972 5.91277 27.4356C5.68746 26.8989 5.34361 26.41 4.90251 25.9993C4.59837 25.7082 4.22632 25.4831 3.81386 25.3406C3.74597 25.3116 3.67187 25.2968 3.59691 25.2971C3.52195 25.2975 3.44802 25.3131 3.38048 25.3427C3.31295 25.3723 3.25349 25.4153 3.20643 25.4685C3.15938 25.5216 3.12589 25.5837 3.10841 25.6501C3.04553 25.8131 3.01601 25.9853 3.02132 26.158C3.07512 26.8211 3.31504 27.4606 3.71806 28.0149C3.81386 28.1499 3.92708 28.2848 4.03159 28.4197C4.39677 28.8768 4.91714 29.2115 5.51215 29.372C5.60618 29.4003 5.7083 29.3966 5.79959 29.3616C5.89087 29.3266 5.96512 29.2626 6.00858 29.1815C6.12388 28.9988 6.17552 28.7885 6.15663 28.5784Z" fill="black" stroke="#231F20" stroke-width="0.21773" stroke-miterlimit="10"/>
</svg>
